<?xml version="1.0" encoding="UTF-8" standalone="no"?>
<!-- Created with Inkscape (http://www.inkscape.org/) -->

<svg
   xmlns:dc="http://purl.org/dc/elements/1.1/"
   xmlns:cc="http://creativecommons.org/ns#"
   xmlns:rdf="http://www.w3.org/1999/02/22-rdf-syntax-ns#"
   xmlns:svg="http://www.w3.org/2000/svg"
   xmlns="http://www.w3.org/2000/svg"
   xmlns:sodipodi="http://sodipodi.sourceforge.net/DTD/sodipodi-0.dtd"
   xmlns:inkscape="http://www.inkscape.org/namespaces/inkscape"
   width="300mm"
   height="300mm"
   viewBox="0 0 1062.9921 1062.9921"
   id="svg2"
   version="1.1"
   inkscape:version="0.91 r13725"
   sodipodi:docname="smily.svg">
  <defs
     id="defs4" />
  <sodipodi:namedview
     id="base"
     pagecolor="#ffffff"
     bordercolor="#666666"
     borderopacity="1.0"
     inkscape:pageopacity="0.0"
     inkscape:pageshadow="2"
     inkscape:zoom="0.35"
     inkscape:cx="375"
     inkscape:cy="520"
     inkscape:document-units="px"
     inkscape:current-layer="layer1"
     showgrid="false"
     inkscape:window-width="1366"
     inkscape:window-height="705"
     inkscape:window-x="-8"
     inkscape:window-y="-8"
     inkscape:window-maximized="1" />
  <metadata
     id="metadata7">
    <rdf:RDF>
      <cc:Work
         rdf:about="">
        <dc:format>image/svg+xml</dc:format>
        <dc:type
           rdf:resource="http://purl.org/dc/dcmitype/StillImage" />
        <dc:title></dc:title>
      </cc:Work>
    </rdf:RDF>
  </metadata>
  <g
     inkscape:label="Layer 1"
     inkscape:groupmode="layer"
     id="layer1"
     transform="translate(0,10.629921)">
    <path
       style="opacity:1;fill:#ffff00;fill-opacity:0.55865921"
       id="path3336"
       sodipodi:type="arc"
       sodipodi:cx="530"
       sodipodi:cy="518.07642"
       sodipodi:rx="530"
       sodipodi:ry="531.42859"
       sodipodi:start="0.071936538"
       sodipodi:end="0.053409868"
       sodipodi:open="true"
       d="M 1058.6293,556.27259 A 530,531.42859 0 0 1 494.35534,1048.3018 530,531.42859 0 0 1 1.0405609,484.79188 530,531.42859 0 0 1 560.74474,-12.457281 530,531.42859 0 0 1 1059.2442,546.44645" />
    <path
       style="opacity:1;fill:#ffff00;fill-opacity:0.55865921"
       d="M 479.85714,1043.8655 C 318.70285,1029.1698 176.49844,945.30684 85.880503,811.52352 43.722931,749.28441 15.555645,677.64941 0.82848259,595.21935 -4.2442626,566.82647 -4.2156074,464.03727 0.87308659,435.21935 32.600128,255.5452 136.84944,114.35975 294.14285,38.042408 c 167.30043,-81.172649 365.12443,-68.428395 520,33.499537 78.91486,51.936075 139.81897,120.552875 182.30856,205.395495 75.09159,149.94191 75.30329,326.3682 0.5704,475.38131 -69.54453,138.6678 -193.72761,238.73989 -343.8145,277.06035 -51.45843,13.1386 -122.7756,19.0983 -173.35017,14.4864 z"
       id="path3338"
       inkscape:connector-curvature="0" />
    <path
       style="opacity:1;fill:#ffff00;fill-opacity:0.55865921"
       id="path3340"
       sodipodi:type="arc"
       sodipodi:cx="272.85715"
       sodipodi:cy="338.07645"
       sodipodi:rx="27.142857"
       sodipodi:ry="51.42857"
       sodipodi:start="0.071936538"
       sodipodi:end="0.053409868"
       sodipodi:open="true"
       d="m 299.9298,341.77285 a 27.142857,51.42857 0 0 1 -28.89812,47.61573 27.142857,51.42857 0 0 1 -25.2641,-54.53322 27.142857,51.42857 0 0 1 28.6641,-48.12088 27.142857,51.42857 0 0 1 25.52962,54.08745" />
    <path
       sodipodi:type="spiral"
       style="fill:none;fill-rule:evenodd;stroke:#000000;stroke-width:1px;stroke-linecap:butt;stroke-linejoin:miter;stroke-opacity:1"
       id="path3342"
       sodipodi:cx="260"
       sodipodi:cy="298.07645"
       sodipodi:expansion="1"
       sodipodi:revolution="3"
       sodipodi:radius="129.45726"
       sodipodi:argument="-17.663364"
       sodipodi:t0="0"
       d="m 260,298.07645 c 2.43529,6.01661 -6.90878,6.25111 -10,4.04762 -8.37701,-5.97133 -4.84478,-18.44543 1.90476,-24.04762 12.07335,-10.02101 29.94196,-4.22284 38.09524,7.85714 11.96526,17.72785 3.65036,41.61898 -13.80952,52.14285 -23.27128,14.02667 -53.3633,3.10305 -66.19048,-19.76189 -16.14169,-28.7732 -2.56955,-65.14048 25.71428,-80.2381 34.25551,-18.28524 76.93631,-2.04424 94.28571,31.66666 20.44568,39.72712 1.52408,88.7438 -37.61903,108.33333 -45.19227,22.61689 -100.55908,1.00734 -122.38095,-43.57141 -24.7954,-50.65322 -0.493,-112.37982 49.52379,-136.42857 56.11129,-26.97907 124.20453,0.0196 150.47619,55.47617 29.16652,61.5673 -0.53091,136.03223 -61.42855,164.52381" />
    <path
       sodipodi:type="spiral"
       style="fill:none;fill-rule:evenodd;stroke:#000000;stroke-width:1px;stroke-linecap:butt;stroke-linejoin:miter;stroke-opacity:1"
       id="path3348"
       sodipodi:cx="665.71429"
       sodipodi:cy="272.36215"
       sodipodi:expansion="1"
       sodipodi:revolution="3"
       sodipodi:radius="128.06248"
       sodipodi:argument="-18.174814"
       sodipodi:t0="0"
       d="m 665.71429,272.36215 c 5.01384,4.01108 -2.9332,8.73748 -6.66667,8.33333 -10.11748,-1.09522 -13.11001,-13.56608 -9.99998,-21.66667 5.5631,-14.49007 23.78457,-18.13976 36.66667,-11.66664 18.905,9.49956 23.29957,34.13482 13.3333,51.66667 -13.28348,23.3672 -44.53095,28.51366 -66.66668,14.99995 -27.85556,-17.00562 -33.75559,-54.94871 -16.66661,-81.66668 20.69705,-32.35904 65.37862,-39.0136 96.66669,-18.33326 36.87189,24.37107 44.2817,75.81609 19.99991,111.66669 -28.03429,41.39092 -86.25861,49.55653 -126.66668,21.66657 -45.91422,-31.69036 -54.83608,-96.70469 -23.33323,-141.66669 35.34145,-50.44057 107.15335,-60.11904 156.66669,-24.99988 54.96919,38.98893 65.40457,117.60396 26.66653,171.66669" />
    <path
       style="opacity:1;fill:#000000;fill-opacity:0.55865921"
       id="path3350"
       sodipodi:type="arc"
       sodipodi:cx="290"
       sodipodi:cy="380.93362"
       sodipodi:rx="75.714287"
       sodipodi:ry="142.85715"
       sodipodi:start="0.071936538"
       sodipodi:end="0.053409868"
       sodipodi:open="true"
       d="M 365.51847,391.20141 A 75.714287,142.85715 0 0 1 284.90791,523.46733 75.714287,142.85715 0 0 1 214.43436,371.98617 75.714287,142.85715 0 0 1 294.39211,238.31704 75.714287,142.85715 0 0 1 365.60632,388.55998" />
    <path
       style="opacity:1;fill:#000000;fill-opacity:0.55865921"
       id="path3352"
       sodipodi:type="arc"
       sodipodi:cx="707.14288"
       sodipodi:cy="359.50507"
       sodipodi:rx="75.714287"
       sodipodi:ry="130"
       sodipodi:start="0.071936538"
       sodipodi:end="0.053409868"
       sodipodi:open="true"
       d="M 782.66135,368.84875 A 75.714287,130 0 0 1 702.05079,489.21073 75.714287,130 0 0 1 631.57725,351.36288 75.714287,130 0 0 1 711.53499,229.72398 75.714287,130 0 0 1 782.7492,366.44505" />
    <path
       style="opacity:1;fill:#000000;fill-opacity:0.55865921"
       d="m 245.38996,467.53154 c -10.49807,-13.08121 -26.96139,-53.88658 -26.96139,-66.82549 0,-2.88419 4.10279,-1.12085 9.28572,3.99092 24.66022,24.32172 52.27044,11.74372 64.46502,-29.36738 5.77504,-19.4692 6.21649,-24.70875 3.50255,-41.57188 -3.96442,-24.63297 -14.63888,-38.92906 -29.06717,-38.92906 -14.4674,0 -23.14748,13.83185 -21.92601,34.93949 0.73167,12.6437 2.22742,15.5132 8.73989,16.76694 4.32143,0.83195 7.85714,-0.41447 7.85714,-2.76974 0,-2.3553 -2.89285,-4.11156 -6.42857,-3.90281 -8.71803,0.51476 -10.08479,-17.40492 -2.31855,-30.39883 8.65131,-14.47475 21.72213,-12.78311 31.82405,4.11869 25.00495,41.83646 -7.40683,114.64501 -42.54861,95.57949 -5.79057,-3.14156 -14.22431,-10.05312 -18.74164,-15.35899 -7.80466,-9.16705 -8.13893,-11.01987 -6.71803,-37.23774 3.40932,-62.90709 29.15368,-106.93933 67.98915,-116.28621 12.32974,-2.96751 13.78994,-2.06445 26.18927,16.19659 17.86132,26.3052 25.04589,52.51797 25.01074,91.2513 -0.0605,66.72719 -29.89449,125.59956 -67.00018,132.21385 -9.4996,1.69335 -13.59889,-0.50367 -23.15338,-12.40914 z"
       id="path3354"
       inkscape:connector-curvature="0" />
    <path
       style="opacity:1;fill:#000000;fill-opacity:0.55865921"
       d="m 649.21593,366.56355 c -5.74031,-6.54689 -12.34733,-20.08154 -14.81316,-30.34514 -1.89927,-7.90536 -1.68107,-8.11423 6.0276,-5.76986 37.8559,11.51278 72.91472,-17.09391 63.35974,-51.69919 -3.44532,-12.47793 -17.42259,-24.25795 -29.15218,-24.56941 -9.06208,-0.24062 -9.06023,-0.24363 3.79064,-6.16463 14.35226,-6.61276 40.50844,-8.01033 50.44005,-2.69509 7.87111,4.21249 15.27424,25.93334 15.27424,44.81475 0,32.32412 -17.20943,59.153 -46.97711,73.23563 -20.44854,9.67389 -41.0637,11.04664 -47.94982,3.19294 z"
       id="path3356"
       inkscape:connector-curvature="0"
       transform="translate(0,-10.629921)" />
    <path
       style="opacity:1;fill:#000000;fill-opacity:0.55865921"
       d="m 653.39032,462.21888 c -6.94709,-9.23397 -17.81889,-44.56517 -17.81889,-57.90784 0,-6.4418 3.64481,-8.14032 17.46813,-8.14032 27.44107,0 50.05019,-31.23106 52.18779,-72.0895 1.4383,-27.49192 -12.66868,-62.25976 -27.74825,-68.3879 l -8.7178,-3.54279 8.33232,-8.07778 c 4.58278,-4.44279 16.93695,-9.21692 27.45371,-10.60919 17.48916,-2.31533 19.72661,-1.41156 26.21165,10.58748 13.51763,25.01121 16.23917,89.10216 5.78611,136.26027 -12.32563,55.60608 -64.37266,106.87247 -83.15477,81.90757 z"
       id="path3358"
       inkscape:connector-curvature="0" />
    <path
       style="opacity:1;fill:#000000;fill-opacity:0.55865921"
       d="m 637.09935,324.84665 c -4.35629,-3.1854 -4.95958,-6.18685 -3.45293,-17.17902 2.04543,-14.92308 13.01178,-38.81547 13.22731,-28.81836 0.16595,7.69748 5.44788,12.71428 13.38622,12.71428 6.79533,0 11.58592,-4.78089 8.06357,-8.04723 -1.15821,-1.07402 -2.67981,-0.34562 -3.38134,1.61866 -1.81941,5.09436 -11.29018,4.42189 -13.35078,-0.94796 -5.60796,-14.6141 3.76573,-26.94433 20.4086,-26.84565 34.12395,0.20234 40.63277,51.33478 8.47695,66.59371 -12.11094,5.74702 -36.07599,6.25064 -43.3776,0.91157 z"
       id="path3360"
       inkscape:connector-curvature="0"
       transform="translate(0,-10.629921)" />
    <path
       style="opacity:1;fill:#000000;fill-opacity:0.55865921"
       d="m 641.28571,325.09451 c -6.07002,-3.26892 -7.00426,-5.5395 -6.22012,-15.11739 0.9487,-11.588 11.26232,-37.7041 11.69367,-29.61065 0.50074,9.39579 23.09788,14.7491 23.09788,5.47194 0,-2.0748 -1.97945,-1.98796 -6.20238,0.27209 -5.13983,2.75075 -6.85297,2.42969 -10,-1.87413 -5.05843,-6.91782 -4.78806,-10.90885 1.20238,-17.74888 5.24808,-5.99238 23.57143,-13.39251 23.57143,-9.51964 0,1.23745 3.28109,3.74487 7.29132,5.57205 9.32361,4.24812 16.58727,21.25451 14.29558,33.47022 -2.15126,11.46724 -15.36522,28.17609 -23.01547,29.10271 -3.14286,0.38067 -10.85714,1.39778 -17.14286,2.26024 -7.01013,0.96186 -14.19009,0.0809 -18.57143,-2.27856 z"
       id="path3362"
       inkscape:connector-curvature="0"
       transform="translate(0,-10.629921)" />
    <path
       style="opacity:1;fill:#000000;fill-opacity:0.55865921"
       d="m 641.28571,325.09451 c -6.07002,-3.26892 -7.00426,-5.5395 -6.22012,-15.11739 0.9487,-11.588 11.26232,-37.7041 11.69367,-29.61065 0.50074,9.39579 23.09788,14.7491 23.09788,5.47194 0,-2.0748 -1.97945,-1.98796 -6.20238,0.27209 -5.13983,2.75075 -6.85297,2.42969 -10,-1.87413 -5.05843,-6.91782 -4.78806,-10.90885 1.20238,-17.74888 5.24808,-5.99238 23.57143,-13.39251 23.57143,-9.51964 0,1.23745 3.28109,3.74487 7.29132,5.57205 9.32361,4.24812 16.58727,21.25451 14.29558,33.47022 -2.15126,11.46724 -15.36522,28.17609 -23.01547,29.10271 -3.14286,0.38067 -10.85714,1.39778 -17.14286,2.26024 -7.01013,0.96186 -14.19009,0.0809 -18.57143,-2.27856 z"
       id="path3364"
       inkscape:connector-curvature="0"
       transform="translate(0,-10.629921)" />
    <rect
       style="opacity:1;fill:#ff0000;fill-opacity:0.55865921"
       id="rect3368"
       width="745.71429"
       height="145.71448"
       x="147.30354"
       y="665.47589"
       ry="72.857246"
       rx="372.85715" />
  </g>
</svg>
